<mxfile host="app.diagrams.net" modified="2024-03-08T09:19:10.155Z" agent="Mozilla/5.0 (X11; Linux x86_64) AppleWebKit/537.36 (KHTML, like Gecko) Chrome/122.0.0.0 Safari/537.36" etag="mbpgT1JtHH0PawPt0YyG" version="24.0.2" type="github">
  <diagram name="Page-1" id="2YBvvXClWsGukQMizWep">
    <mxGraphModel dx="728" dy="1228" grid="1" gridSize="10" guides="1" tooltips="1" connect="1" arrows="1" fold="1" page="1" pageScale="1" pageWidth="850" pageHeight="1100" math="0" shadow="0">
      <root>
        <mxCell id="0" />
        <mxCell id="1" parent="0" />
        <mxCell id="aM9ryv3xv72pqoxQDRHE-5" value=":Object" style="shape=umlLifeline;perimeter=lifelinePerimeter;whiteSpace=wrap;html=1;container=0;dropTarget=0;collapsible=0;recursiveResize=0;outlineConnect=0;portConstraint=eastwest;newEdgeStyle={&quot;edgeStyle&quot;:&quot;elbowEdgeStyle&quot;,&quot;elbow&quot;:&quot;vertical&quot;,&quot;curved&quot;:0,&quot;rounded&quot;:0};" parent="1" vertex="1">
          <mxGeometry x="220" y="40" width="100" height="300" as="geometry" />
        </mxCell>
        <mxCell id="Rxn9d5QJ2sipySp_mm8B-1" value="UI" style="shape=umlLifeline;perimeter=lifelinePerimeter;whiteSpace=wrap;html=1;container=0;dropTarget=0;collapsible=0;recursiveResize=0;outlineConnect=0;portConstraint=eastwest;newEdgeStyle={&quot;edgeStyle&quot;:&quot;elbowEdgeStyle&quot;,&quot;elbow&quot;:&quot;vertical&quot;,&quot;curved&quot;:0,&quot;rounded&quot;:0};size=40;" vertex="1" parent="1">
          <mxGeometry x="220" y="40" width="100" height="300" as="geometry" />
        </mxCell>
        <mxCell id="Rxn9d5QJ2sipySp_mm8B-4" value="Object" style="html=1;whiteSpace=wrap;" vertex="1" parent="1">
          <mxGeometry x="375" y="340" width="110" height="50" as="geometry" />
        </mxCell>
        <mxCell id="Rxn9d5QJ2sipySp_mm8B-8" value="UI" style="html=1;whiteSpace=wrap;" vertex="1" parent="1">
          <mxGeometry x="220" y="340" width="110" height="50" as="geometry" />
        </mxCell>
        <mxCell id="Rxn9d5QJ2sipySp_mm8B-9" value="Tradoooor" style="shape=umlActor;verticalLabelPosition=bottom;verticalAlign=top;html=1;outlineConnect=0;" vertex="1" parent="1">
          <mxGeometry x="70" y="100" width="30" height="60" as="geometry" />
        </mxCell>
        <mxCell id="Rxn9d5QJ2sipySp_mm8B-10" value="Tradoooor" style="shape=umlActor;verticalLabelPosition=bottom;verticalAlign=top;html=1;outlineConnect=0;" vertex="1" parent="1">
          <mxGeometry x="70" y="240" width="30" height="60" as="geometry" />
        </mxCell>
        <mxCell id="Rxn9d5QJ2sipySp_mm8B-15" value="Database" style="shape=cylinder3;whiteSpace=wrap;html=1;boundedLbl=1;backgroundOutline=1;size=15;" vertex="1" parent="1">
          <mxGeometry x="550" y="80" width="60" height="80" as="geometry" />
        </mxCell>
        <mxCell id="Rxn9d5QJ2sipySp_mm8B-16" value="Database" style="shape=cylinder3;whiteSpace=wrap;html=1;boundedLbl=1;backgroundOutline=1;size=15;" vertex="1" parent="1">
          <mxGeometry x="550" y="290" width="60" height="80" as="geometry" />
        </mxCell>
        <mxCell id="Rxn9d5QJ2sipySp_mm8B-17" value="" style="endArrow=classic;html=1;rounded=0;" edge="1" parent="1" source="Rxn9d5QJ2sipySp_mm8B-9" target="Rxn9d5QJ2sipySp_mm8B-1">
          <mxGeometry width="50" height="50" relative="1" as="geometry">
            <mxPoint x="220" y="270" as="sourcePoint" />
            <mxPoint x="270" y="220" as="targetPoint" />
            <Array as="points">
              <mxPoint x="200" y="130" />
            </Array>
          </mxGeometry>
        </mxCell>
        <mxCell id="Rxn9d5QJ2sipySp_mm8B-20" value="&lt;font style=&quot;font-size: 8px;&quot;&gt;Specify chart pattern/timeframe&lt;/font&gt;" style="text;html=1;align=center;verticalAlign=middle;resizable=0;points=[];autosize=1;strokeColor=none;fillColor=none;" vertex="1" parent="1">
          <mxGeometry x="120" y="100" width="130" height="30" as="geometry" />
        </mxCell>
        <mxCell id="Rxn9d5QJ2sipySp_mm8B-21" value="" style="endArrow=classic;html=1;rounded=0;" edge="1" parent="1">
          <mxGeometry width="50" height="50" relative="1" as="geometry">
            <mxPoint x="270" y="180" as="sourcePoint" />
            <mxPoint x="424.5" y="180" as="targetPoint" />
          </mxGeometry>
        </mxCell>
        <mxCell id="Rxn9d5QJ2sipySp_mm8B-22" value="&lt;font style=&quot;font-size: 9px;&quot;&gt;Request pattern recognition&lt;/font&gt;" style="text;html=1;align=center;verticalAlign=middle;resizable=0;points=[];autosize=1;strokeColor=none;fillColor=none;" vertex="1" parent="1">
          <mxGeometry x="280" y="148" width="130" height="30" as="geometry" />
        </mxCell>
        <mxCell id="Rxn9d5QJ2sipySp_mm8B-25" value="Query Patterns" style="text;html=1;align=center;verticalAlign=middle;resizable=0;points=[];autosize=1;strokeColor=none;fillColor=none;" vertex="1" parent="1">
          <mxGeometry x="440" y="175" width="100" height="30" as="geometry" />
        </mxCell>
        <mxCell id="Rxn9d5QJ2sipySp_mm8B-27" value="AIchartFinder" style="shape=umlLifeline;perimeter=lifelinePerimeter;whiteSpace=wrap;html=1;container=0;dropTarget=0;collapsible=0;recursiveResize=0;outlineConnect=0;portConstraint=eastwest;newEdgeStyle={&quot;edgeStyle&quot;:&quot;elbowEdgeStyle&quot;,&quot;elbow&quot;:&quot;vertical&quot;,&quot;curved&quot;:0,&quot;rounded&quot;:0};size=40;" vertex="1" parent="1">
          <mxGeometry x="380" y="40" width="100" height="300" as="geometry" />
        </mxCell>
        <mxCell id="Rxn9d5QJ2sipySp_mm8B-28" value="" style="endArrow=none;dashed=1;html=1;rounded=0;exitX=0.5;exitY=0;exitDx=0;exitDy=0;exitPerimeter=0;" edge="1" parent="1" source="Rxn9d5QJ2sipySp_mm8B-16">
          <mxGeometry width="50" height="50" relative="1" as="geometry">
            <mxPoint x="580" y="280" as="sourcePoint" />
            <mxPoint x="580" y="160" as="targetPoint" />
          </mxGeometry>
        </mxCell>
        <mxCell id="Rxn9d5QJ2sipySp_mm8B-29" value="" style="endArrow=classic;html=1;rounded=0;" edge="1" parent="1">
          <mxGeometry width="50" height="50" relative="1" as="geometry">
            <mxPoint x="430" y="205" as="sourcePoint" />
            <mxPoint x="584.5" y="205" as="targetPoint" />
          </mxGeometry>
        </mxCell>
        <mxCell id="Rxn9d5QJ2sipySp_mm8B-30" value="" style="endArrow=block;dashed=1;endFill=0;endSize=12;html=1;rounded=0;" edge="1" parent="1">
          <mxGeometry width="160" relative="1" as="geometry">
            <mxPoint x="270.19" y="300" as="sourcePoint" />
            <mxPoint x="120.00034482758605" y="300" as="targetPoint" />
          </mxGeometry>
        </mxCell>
        <mxCell id="Rxn9d5QJ2sipySp_mm8B-31" value="" style="endArrow=block;dashed=1;endFill=0;endSize=12;html=1;rounded=0;" edge="1" parent="1">
          <mxGeometry width="160" relative="1" as="geometry">
            <mxPoint x="425" y="290" as="sourcePoint" />
            <mxPoint x="275" y="290" as="targetPoint" />
          </mxGeometry>
        </mxCell>
        <mxCell id="Rxn9d5QJ2sipySp_mm8B-32" value="" style="endArrow=block;dashed=1;endFill=0;endSize=12;html=1;rounded=0;" edge="1" parent="1">
          <mxGeometry width="160" relative="1" as="geometry">
            <mxPoint x="580.19" y="269.66" as="sourcePoint" />
            <mxPoint x="430.00034482758605" y="269.66" as="targetPoint" />
          </mxGeometry>
        </mxCell>
        <mxCell id="Rxn9d5QJ2sipySp_mm8B-33" value="Return patterns" style="text;html=1;align=center;verticalAlign=middle;resizable=0;points=[];autosize=1;strokeColor=none;fillColor=none;" vertex="1" parent="1">
          <mxGeometry x="445" y="238" width="110" height="30" as="geometry" />
        </mxCell>
        <mxCell id="Rxn9d5QJ2sipySp_mm8B-34" value="Sort list of chart+pairs" style="text;html=1;align=center;verticalAlign=middle;resizable=0;points=[];autosize=1;strokeColor=none;fillColor=none;" vertex="1" parent="1">
          <mxGeometry x="280" y="255" width="140" height="30" as="geometry" />
        </mxCell>
        <mxCell id="Rxn9d5QJ2sipySp_mm8B-35" value="Display result" style="text;html=1;align=center;verticalAlign=middle;resizable=0;points=[];autosize=1;strokeColor=none;fillColor=none;" vertex="1" parent="1">
          <mxGeometry x="140" y="268" width="100" height="30" as="geometry" />
        </mxCell>
      </root>
    </mxGraphModel>
  </diagram>
</mxfile>
